<?xml version="1.0" standalone="no"?>
<!DOCTYPE svg PUBLIC "-//W3C//DTD SVG 20010904//EN"
 "http://www.w3.org/TR/2001/REC-SVG-20010904/DTD/svg10.dtd">
<svg version="1.0" xmlns="http://www.w3.org/2000/svg"
 width="320.000000pt" height="164.000000pt" viewBox="0 0 320.000000 164.000000"
 preserveAspectRatio="xMidYMid meet">

<g transform="translate(0.000000,164.000000) scale(0.100000,-0.100000)"
fill="#000000" stroke="none">
<path d="M1280 1401 l0 -40 151 -108 151 -108 -151 -3 -151 -3 0 -29 0 -30
325 0 325 0 0 30 0 29 -150 3 -151 3 151 108 150 108 0 40 c0 30 -3 38 -12 33
-7 -5 -79 -57 -159 -116 -81 -59 -150 -108 -153 -108 -4 0 -73 49 -154 108
-81 59 -153 111 -159 116 -10 5 -13 -3 -13 -33z"/>
<path d="M1181 696 c-35 -90 -73 -173 -84 -185 l-21 -21 54 1 c41 0 49 2 34 9
-31 12 -34 29 -15 80 l17 45 63 0 64 0 12 -35 c28 -80 28 -80 3 -89 -18 -8 -9
-10 40 -10 l63 -1 -20 28 c-11 15 -45 95 -77 177 -31 83 -60 153 -64 158 -3 4
-35 -67 -69 -157z m78 18 c13 -36 21 -67 18 -70 -3 -3 -27 -4 -54 -2 l-50 3
25 68 c14 37 28 67 31 67 3 0 17 -30 30 -66z"/>
<path d="M398 840 c22 -9 22 -13 22 -170 0 -157 0 -161 -22 -170 -17 -6 -5 -9
47 -9 52 0 64 3 48 9 -21 9 -23 16 -23 90 0 103 13 104 80 5 53 -78 57 -90 38
-98 -7 -3 14 -6 47 -6 58 -1 59 0 39 17 -11 9 -49 56 -83 104 l-62 87 48 61
c26 34 59 68 73 75 24 13 22 14 -30 13 -30 0 -47 -2 -37 -5 9 -2 17 -12 17
-21 0 -26 -89 -132 -111 -132 -17 0 -19 8 -19 70 0 64 2 72 23 80 16 6 4 9
-48 9 -52 0 -64 -3 -47 -9z"/>
<path d="M738 840 c21 -9 22 -13 22 -164 0 -149 -1 -155 -22 -170 -21 -15 -19
-16 47 -15 52 0 64 3 48 9 -21 9 -23 16 -23 90 l0 80 80 0 80 0 0 -80 c0 -74
-2 -81 -22 -90 -17 -6 -5 -9 47 -9 66 -1 68 0 47 15 -21 15 -22 21 -22 170 0
151 1 155 23 164 16 6 5 9 -43 8 -36 0 -57 -2 -47 -5 14 -4 17 -17 17 -84 l0
-79 -80 0 -80 0 0 79 c0 67 3 80 18 84 9 3 -12 5 -48 5 -48 1 -59 -2 -42 -8z"/>
<path d="M1448 843 c22 -4 22 -6 22 -169 0 -161 0 -165 -22 -174 -18 -7 -11
-9 32 -9 43 0 50 2 33 9 -22 9 -23 13 -23 162 l0 153 48 -75 c27 -41 75 -115
108 -165 l59 -90 6 175 c3 96 6 176 7 177 1 1 10 4 20 6 9 3 -5 5 -33 5 -39 1
-45 -1 -27 -8 21 -9 22 -14 22 -136 l0 -127 -87 136 -88 136 -50 -1 c-27 0
-40 -3 -27 -5z"/>
<path d="M1818 840 c21 -9 22 -13 22 -164 0 -149 -1 -155 -22 -170 -21 -15
-19 -16 47 -15 52 0 64 3 48 9 -21 9 -23 16 -23 90 l0 80 80 0 80 0 0 -80 c0
-74 -2 -81 -22 -90 -17 -6 -5 -9 47 -9 66 -1 68 0 47 15 -21 15 -22 21 -22
170 0 151 1 155 23 164 16 6 5 9 -43 8 -36 0 -57 -2 -47 -5 14 -4 17 -17 17
-84 l0 -79 -80 0 -80 0 0 79 c0 67 3 80 18 84 9 3 -12 5 -48 5 -48 1 -59 -2
-42 -8z"/>
<path d="M2208 840 c21 -9 22 -13 22 -164 0 -149 -1 -155 -22 -170 -21 -15
-20 -16 32 -15 44 0 50 2 32 9 -12 5 -25 15 -28 23 -2 7 -3 76 -2 152 l3 139
105 -162 c58 -89 108 -162 113 -162 4 0 7 77 7 170 0 168 0 171 23 180 17 7 9
9 -33 8 -30 0 -45 -3 -33 -5 30 -6 34 -27 31 -158 l-3 -109 -88 137 -89 137
-46 -1 c-38 0 -43 -2 -24 -9z"/>
<path d="M2568 840 c22 -9 22 -13 22 -170 0 -157 0 -161 -22 -170 -16 -6 22
-9 116 -9 122 -1 137 1 132 15 -3 9 -6 32 -7 52 l-1 37 -9 -32 c-13 -46 -47
-65 -106 -61 l-48 3 -3 83 c-3 80 -2 82 20 82 33 0 48 -12 58 -46 6 -22 8 -10
9 51 0 75 -1 78 -12 45 -10 -29 -17 -36 -45 -38 l-33 -3 3 78 3 78 44 3 c70 5
88 -3 98 -45 l10 -38 4 48 4 47 -130 -1 c-88 0 -123 -3 -107 -9z"/>
<path d="M1253 285 c-18 -41 -28 -75 -23 -75 5 0 12 9 15 20 9 30 71 28 78 -2
4 -12 9 -19 13 -16 5 5 -44 148 -51 148 0 0 -15 -34 -32 -75z m57 -17 c0 -5
-11 -8 -25 -8 -29 0 -29 0 -13 35 l12 26 13 -23 c7 -13 12 -26 13 -30z"/>
<path d="M1010 335 c-19 -23 -3 -46 41 -60 43 -15 50 -42 14 -51 -15 -4 -31
-2 -38 5 -17 17 -31 13 -17 -4 26 -31 90 -15 90 22 0 19 -8 28 -40 40 -41 17
-52 39 -24 50 9 3 26 1 36 -6 16 -10 19 -10 16 1 -7 20 -62 22 -78 3z"/>
<path d="M1120 280 c0 -40 4 -70 10 -70 6 0 10 13 10 29 0 26 4 30 33 33 25 2
33 8 35 26 5 33 -15 52 -54 52 l-34 0 0 -70z m70 45 c18 -21 5 -45 -25 -45
-21 0 -25 5 -25 30 0 23 5 30 19 30 10 0 24 -7 31 -15z"/>
<path d="M1444 335 c-4 -8 -4 -21 -1 -29 3 -8 -1 -20 -9 -26 -17 -15 -18 -44
-1 -58 6 -5 31 -9 54 -9 35 1 40 4 33 18 -6 10 -5 21 3 29 10 10 7 11 -11 5
-26 -8 -39 13 -24 42 5 10 7 24 5 31 -6 17 -42 15 -49 -3z m34 -12 c-4 -22
-22 -20 -26 1 -2 10 3 16 13 16 10 0 15 -7 13 -17z m-1 -62 c10 -16 9 -22 -3
-32 -12 -10 -18 -9 -31 4 -13 13 -14 19 -3 31 16 21 23 20 37 -3z"/>
<path d="M1635 330 c-60 -67 27 -158 96 -100 28 22 14 27 -15 5 -27 -20 -42
-19 -66 5 -28 28 -26 66 5 86 22 15 29 15 53 3 45 -23 48 -23 28 0 -25 27 -76
28 -101 1z"/>
<path d="M1770 280 l0 -70 38 1 c30 2 32 3 10 6 -27 4 -28 6 -28 69 0 36 -4
64 -10 64 -6 0 -10 -30 -10 -70z"/>
<path d="M1863 280 c0 -41 2 -58 4 -37 2 20 2 54 0 75 -2 20 -4 3 -4 -38z"/>
<path d="M1900 283 c0 -42 4 -73 10 -73 6 0 10 21 11 48 l0 47 22 -29 c60 -79
56 -79 57 2 0 41 -4 72 -10 72 -5 0 -10 -21 -11 -47 l0 -48 -17 25 c-9 13 -27
36 -39 50 l-22 25 -1 -72z"/>
<path d="M2033 280 c0 -41 2 -58 4 -37 2 20 2 54 0 75 -2 20 -4 3 -4 -38z"/>
<path d="M2086 328 c-51 -72 41 -162 99 -98 22 24 13 26 -19 5 -48 -32 -104
22 -77 74 16 29 57 38 80 17 25 -23 38 -20 16 4 -25 28 -79 27 -99 -2z"/>
</g>
</svg>
