<?xml version="1.0" standalone="no"?>
<!DOCTYPE svg PUBLIC "-//W3C//DTD SVG 20010904//EN"
 "http://www.w3.org/TR/2001/REC-SVG-20010904/DTD/svg10.dtd">
<svg version="1.0" xmlns="http://www.w3.org/2000/svg"
 width="1280.000000pt" height="854.000000pt" viewBox="0 0 1280.000000 854.000000"
 preserveAspectRatio="xMidYMid meet">
<metadata>
Created by potrace 1.16, written by Peter Selinger 2001-2019
</metadata>
<g transform="translate(0.000000,854.000000) scale(0.100000,-0.100000)"
fill="#000000" stroke="none">
<path d="M0 4270 l0 -4270 2720 0 2719 0 48 30 c91 57 103 70 62 70 -32 0 -59
19 -59 40 0 14 7 20 23 20 12 0 58 16 102 36 44 20 118 51 165 71 47 19 119
52 160 73 121 61 192 90 233 93 39 4 46 -3 23 -22 -14 -12 -28 -57 -30 -101
-3 -39 31 -98 73 -126 40 -26 38 -26 361 -49 47 -3 326 -7 620 -7 571 -2 783
10 984 53 49 10 126 21 170 24 167 12 190 16 274 49 70 28 105 35 177 39 90 4
135 19 135 44 0 16 15 18 168 32 106 10 126 9 145 -4 14 -10 46 -15 97 -15 54
0 88 -6 120 -21 59 -27 135 -36 155 -19 12 10 15 23 10 52 -6 33 -4 38 12 38
15 0 16 -2 3 -11 -12 -8 -11 -9 7 -4 24 7 260 -110 304 -151 14 -13 30 -24 36
-24 16 0 136 -110 150 -137 7 -13 19 -30 28 -39 8 -8 15 -20 15 -25 0 -5 39
-9 86 -9 l86 0 -24 29 c-13 16 -35 34 -50 40 -16 5 -28 14 -28 18 0 13 -84
100 -102 106 -10 4 -18 16 -18 27 0 11 -7 20 -15 20 -17 0 -20 16 -6 24 16 10
41 -5 41 -25 0 -10 3 -19 8 -20 4 0 15 -2 25 -4 9 -2 17 1 17 6 0 12 69 -27
101 -57 14 -13 29 -24 34 -24 5 0 25 -16 44 -35 20 -20 54 -51 76 -70 l40 -35
153 0 153 0 -40 38 c-62 57 -68 63 -126 124 -30 32 -59 58 -63 58 -5 0 -21 14
-37 30 -27 28 -29 37 -28 95 0 36 5 71 11 78 11 14 4 117 -9 117 -5 0 -6 6 -3
14 8 21 97 28 147 10 183 -64 326 -174 559 -432 25 -29 51 -52 57 -52 6 0 11
-8 11 -17 0 -13 3 -14 11 -6 9 9 8 18 -5 37 -9 14 -16 30 -16 37 0 21 -90 144
-153 209 -101 104 -194 188 -216 195 -12 3 -21 11 -21 16 0 5 -7 9 -15 9 -8 0
-15 4 -15 8 0 4 -20 21 -45 36 -25 16 -51 36 -57 44 -30 36 74 -1 252 -89 102
-50 208 -99 235 -108 50 -17 95 -17 95 -1 0 24 91 -35 163 -104 26 -25 52 -46
57 -46 6 0 10 -7 10 -16 0 -8 15 -21 33 -29 28 -12 35 -21 45 -65 7 -28 12
-73 12 -98 0 -86 5 -92 67 -92 49 0 54 2 48 19 -4 15 0 20 25 23 29 4 36 -4
31 -34 0 -5 89 -8 200 -8 186 0 200 1 195 18 -8 28 -35 186 -34 202 1 9 -2 28
-6 43 -3 15 -2 27 3 27 12 0 33 -69 25 -81 -2 -5 0 -16 5 -26 5 -10 14 -29 20
-43 23 -51 -6 94 -45 228 -3 12 -2 22 3 22 5 0 16 -28 26 -62 9 -35 22 -76 27
-93 5 -16 12 -65 16 -107 4 -43 10 -75 14 -73 14 8 40 -6 40 -22 0 -8 4 -12 9
-9 5 3 11 -1 15 -9 4 -13 39 -15 221 -15 l215 0 -1 2358 c0 1296 -3 2351 -6
2344 -3 -7 -16 -25 -28 -38 -13 -14 -43 -51 -67 -82 -24 -32 -45 -59 -48 -62
-14 -14 -132 -174 -170 -230 -24 -35 -55 -77 -69 -93 -14 -16 -34 -50 -44 -75
-10 -26 -24 -51 -31 -57 -7 -5 -47 -57 -90 -115 -42 -58 -85 -114 -94 -125
-10 -11 -44 -51 -77 -90 -69 -80 -108 -120 -191 -190 -32 -27 -83 -73 -114
-100 -30 -28 -86 -71 -125 -97 -38 -26 -95 -69 -125 -97 -30 -28 -82 -64 -115
-81 -74 -38 -85 -45 -159 -93 -71 -47 -135 -67 -196 -63 -25 2 -49 0 -55 -4
-5 -4 -18 -10 -28 -13 -16 -6 -18 -1 -16 36 4 72 -41 130 -134 174 -34 16 -89
35 -122 42 -36 8 -65 21 -73 32 -7 11 -19 19 -26 19 -8 0 -20 9 -27 19 -15 21
-11 21 -124 -5 -16 -4 -33 -11 -36 -16 -3 -5 -11 -3 -17 5 -10 12 4 22 77 56
50 23 92 45 95 49 5 9 -27 24 -109 48 -33 9 -80 28 -105 41 -25 12 -52 23 -61
23 -27 0 -182 40 -217 56 -18 9 -40 13 -48 10 -8 -3 -14 0 -14 7 0 8 -23 12
-73 13 -40 1 -94 9 -121 19 -46 16 -51 16 -61 1 -13 -17 -51 -21 -82 -9 -13 6
-8 9 22 13 27 3 41 10 43 22 4 20 -16 30 -140 75 -43 15 -78 32 -78 36 0 4 7
19 17 33 15 23 21 25 67 20 28 -3 45 -3 39 0 -7 3 -13 12 -13 20 0 9 -11 14
-32 14 -18 0 -46 9 -63 20 -16 11 -37 20 -45 20 -12 -1 -12 -3 2 -11 10 -5 15
-16 11 -25 -4 -10 -9 -12 -18 -4 -10 9 -39 14 -94 19 -8 1 -11 7 -7 17 4 10 0
15 -12 13 -9 -1 -20 0 -24 1 -5 1 -13 3 -20 4 -6 0 -12 11 -13 24 -1 13 -16
36 -33 50 -24 22 -29 33 -25 54 3 15 8 26 12 24 4 -3 5 10 3 29 -3 26 -10 35
-30 40 -14 3 -28 2 -31 -4 -7 -11 -61 -2 -61 11 0 5 -6 8 -12 5 -7 -2 -21 0
-31 5 -10 5 -34 11 -55 13 -79 10 -103 16 -96 27 5 7 2 9 -9 5 -9 -3 -19 -2
-22 4 -11 16 -27 -2 -21 -25 5 -19 4 -20 -8 -3 -7 9 -18 17 -25 17 -6 0 -11 6
-11 14 0 7 -6 19 -14 25 -8 7 -17 30 -21 51 -4 24 -13 40 -23 42 -14 3 -12 7
8 26 13 12 18 22 12 22 -7 0 -12 5 -12 10 0 7 6 7 19 0 29 -15 171 -13 172 3
0 6 4 3 9 -8 8 -18 9 -17 9 8 1 23 -4 29 -29 33 -16 4 -28 10 -25 14 3 4 -10
11 -29 14 -19 4 -36 13 -39 20 -4 9 -16 12 -34 9 -20 -3 -24 -2 -14 5 11 8 8
13 -15 25 -16 9 -37 24 -46 34 -45 47 -98 86 -172 123 -16 8 -46 31 -66 50
-51 49 -89 81 -133 110 -20 14 -37 28 -37 33 0 19 -41 4 -64 -24 -14 -17 -26
-27 -26 -22 -1 13 -29 -41 -30 -56 0 -13 -44 -113 -71 -163 -12 -24 -11 -46 4
-89 17 -49 32 -65 66 -72 58 -12 214 52 267 109 25 28 37 34 58 30 14 -4 37
-8 50 -11 16 -3 28 -16 35 -36 6 -17 20 -33 31 -36 11 -3 20 -9 20 -14 0 -5 5
-9 11 -9 26 0 41 -30 34 -69 -4 -23 -2 -48 4 -60 9 -17 6 -29 -19 -69 -38 -62
-56 -149 -40 -196 10 -32 74 -106 92 -106 4 0 8 -7 8 -15 0 -8 6 -15 13 -15 8
0 22 -9 32 -20 9 -10 22 -18 29 -17 6 1 10 -8 8 -22 -2 -13 2 -28 10 -32 8 -5
9 -9 2 -9 -7 0 -15 -12 -18 -26 -4 -14 -12 -24 -19 -21 -7 2 -17 -3 -22 -10
-9 -12 -22 -12 -77 -3 -57 10 -72 17 -96 46 -16 18 -31 31 -34 29 -3 -3 -13 6
-22 20 -9 14 -23 25 -30 25 -8 0 -16 9 -19 20 -3 13 -11 18 -20 14 -10 -3 -22
4 -32 20 -16 25 -40 41 -92 65 -13 6 -23 15 -23 21 0 5 -6 10 -14 10 -17 0
-75 29 -61 31 26 2 -56 21 -104 24 -29 1 -57 8 -61 15 -4 7 -16 9 -28 6 -12
-4 -31 -2 -42 4 -17 9 -24 8 -33 -3 -15 -19 -110 -30 -126 -14 -8 8 -11 5 -12
-13 -1 -18 -3 -20 -6 -7 -3 13 -10 16 -25 12 -14 -5 -21 -1 -25 14 -3 12 -10
21 -15 21 -5 0 -6 -5 -3 -10 11 -18 -23 -22 -47 -6 -14 9 -27 14 -30 10 -3 -3
-16 9 -28 25 -22 32 -54 41 -64 19 -4 -9 -5 -8 -5 2 2 33 -13 61 -30 54 -9 -3
-28 -7 -43 -8 -16 -2 -37 -3 -48 -4 -11 -1 -20 -9 -20 -17 0 -9 -9 -15 -24
-15 -13 0 -26 -5 -28 -12 -7 -19 -96 11 -123 40 -13 14 -27 37 -30 51 -4 14
-15 31 -26 39 -10 7 -19 19 -19 27 0 8 -9 19 -20 25 -11 6 -20 18 -20 28 0 16
-45 62 -61 62 -5 0 -13 -19 -19 -42 -6 -24 -13 -51 -16 -60 -3 -10 -2 -18 3
-18 4 0 9 -21 11 -47 2 -26 7 -52 11 -58 8 -9 14 -35 28 -113 3 -18 9 -35 14
-38 5 -3 9 -14 9 -25 0 -10 4 -19 9 -19 5 0 12 -12 15 -26 4 -15 12 -32 19
-40 30 -34 37 -44 43 -71 4 -15 15 -35 26 -44 10 -9 18 -23 18 -31 0 -9 7 -21
15 -28 25 -21 31 -83 21 -217 -5 -62 -10 -73 -36 -66 -11 3 -41 -2 -66 -12
-32 -12 -48 -14 -58 -6 -17 15 -40 8 -126 -36 -87 -44 -101 -54 -165 -110 -26
-24 -52 -40 -58 -36 -6 4 -8 0 -4 -10 4 -11 1 -17 -8 -17 -16 0 -78 -33 -114
-61 -13 -11 -30 -19 -38 -19 -8 0 -11 -4 -8 -10 3 -5 -3 -10 -13 -10 -11 0
-22 -7 -25 -14 -3 -8 -24 -20 -46 -26 -41 -11 -51 -23 -30 -36 6 -3 8 -17 4
-33 -4 -14 -8 -33 -9 -42 -1 -17 -31 -51 -38 -43 -3 2 -18 -14 -33 -36 -15
-22 -32 -41 -36 -41 -5 -1 -13 -2 -19 -3 -5 0 -18 -9 -29 -18 -21 -17 -21 -17
2 -43 12 -13 31 -35 42 -47 11 -13 19 -28 17 -34 -1 -6 7 -14 18 -17 11 -3 20
-10 20 -16 0 -6 -8 -8 -17 -5 -15 5 -15 3 2 -10 17 -14 18 -20 7 -36 -15 -24
-5 -49 39 -95 16 -17 30 -44 31 -60 1 -17 13 -41 25 -55 13 -14 23 -34 23 -46
0 -11 8 -36 17 -55 10 -19 19 -43 20 -54 2 -11 6 -27 10 -35 8 -19 7 -16 33
-133 11 -53 18 -102 15 -107 -3 -6 -3 -16 2 -23 4 -6 8 -16 9 -22 1 -5 9 -29
17 -52 9 -22 13 -44 10 -46 -3 -3 2 -16 11 -29 9 -12 16 -32 16 -44 0 -18 17
-34 36 -34 3 0 10 14 15 30 6 17 15 30 21 30 5 0 24 13 41 30 84 78 114 100
135 100 13 0 31 9 40 20 10 11 31 22 47 24 31 5 91 25 113 39 7 5 21 5 32 2
12 -4 30 2 47 14 15 11 51 22 78 25 28 4 70 9 95 12 25 3 50 5 55 4 57 -7 125
-7 125 0 0 5 14 4 32 -1 17 -5 48 -6 69 -3 22 4 39 2 43 -5 4 -6 17 -11 30
-11 12 0 26 -3 29 -7 4 -3 17 -8 30 -9 60 -6 195 -36 222 -49 48 -23 282 -95
309 -95 13 0 26 -7 29 -15 4 -8 25 -27 49 -42 24 -15 49 -36 56 -45 7 -10 20
-18 28 -18 26 0 88 -48 142 -110 29 -33 60 -60 68 -60 8 0 13 -3 12 -8 -2 -4
14 -28 35 -53 20 -25 37 -51 37 -58 0 -6 4 -11 9 -11 14 0 61 -97 61 -125 0
-13 14 -54 31 -92 17 -37 37 -93 45 -123 7 -30 21 -72 30 -92 21 -48 13 -68
-27 -68 -23 0 -30 4 -25 15 3 8 -2 21 -10 30 -8 8 -12 19 -9 25 4 6 -5 10 -19
10 -29 0 -41 15 -38 50 2 29 -22 60 -61 77 -15 7 -31 21 -34 30 -4 10 -28 39
-55 64 -26 26 -44 49 -40 53 7 8 -116 126 -133 126 -6 0 -16 -5 -22 -11 -8 -8
-17 -5 -32 10 -12 12 -21 25 -21 31 0 14 -37 31 -54 24 -9 -3 -16 -1 -16 4 0
6 -10 12 -22 14 -13 2 -22 9 -20 16 1 7 -9 12 -23 12 -14 0 -25 5 -25 10 0 6
-9 10 -20 10 -11 0 -20 5 -20 10 0 6 -6 10 -12 10 -19 0 -142 53 -150 65 -4 5
-19 11 -34 12 -14 1 -34 8 -43 16 -9 8 -24 13 -34 12 -20 -4 -125 31 -145 47
-7 6 -31 8 -56 5 -30 -4 -49 -2 -62 8 -10 8 -29 15 -42 15 -13 0 -34 11 -48
25 -29 29 -43 33 -150 39 -47 3 -97 12 -117 22 -34 16 -38 16 -54 1 -13 -11
-23 -13 -36 -6 -10 6 -46 12 -80 13 -52 3 -65 0 -78 -17 -15 -18 -19 -18 -53
-6 -37 13 -39 13 -60 -14 -15 -19 -31 -27 -54 -27 -35 0 -50 -19 -54 -69 -2
-34 -8 -37 -27 -18 -10 10 -15 8 -24 -8 -6 -11 -12 -27 -14 -35 -1 -7 -12 -22
-24 -31 -13 -10 -19 -21 -14 -28 5 -9 -2 -12 -25 -9 -30 3 -33 0 -45 -37 -6
-22 -9 -47 -7 -54 3 -9 0 -11 -7 -6 -8 4 -14 -1 -18 -14 -3 -12 -9 -21 -14
-21 -5 0 -9 -11 -9 -25 0 -16 -6 -25 -15 -25 -15 0 -20 -16 -17 -53 1 -10 -9
-33 -23 -51 -30 -39 -31 -54 -7 -72 15 -12 14 -13 -12 -14 -28 0 -28 -1 -23
-40 3 -22 1 -40 -4 -40 -5 0 -9 7 -9 15 0 8 -5 15 -11 15 -14 0 -2 52 14 62
13 8 -14 63 -42 86 -13 10 -13 14 -2 21 10 7 11 13 2 30 -7 12 -9 26 -6 31 3
6 2 10 -4 10 -5 0 -11 10 -13 23 -3 19 -9 22 -45 21 -24 -1 -40 2 -37 7 3 5
-1 9 -9 9 -8 0 -22 12 -32 26 -9 14 -26 35 -37 46 -11 11 -21 31 -22 44 0 13
-7 24 -14 24 -7 0 -12 -7 -10 -16 2 -10 -3 -19 -11 -22 -8 -3 -11 0 -7 6 8 14
-31 35 -50 28 -8 -3 -14 -12 -14 -21 0 -8 -5 -15 -11 -15 -6 0 -8 8 -4 19 3
12 -1 28 -11 39 -14 17 -20 18 -46 8 -27 -10 -32 -8 -54 19 -33 40 -38 46 -68
74 -22 19 -26 20 -26 6 0 -15 -1 -15 -16 -1 -8 9 -20 16 -25 16 -5 0 -9 7 -9
15 0 8 -9 20 -20 27 -11 7 -20 23 -20 35 0 17 -6 23 -23 23 -13 0 -45 20 -75
48 -114 103 -128 113 -145 96 -7 -8 89 -104 103 -104 6 0 10 -8 10 -18 0 -10
7 -27 15 -38 8 -10 15 -27 15 -36 0 -9 10 -24 22 -32 12 -9 23 -21 24 -28 1
-7 11 -33 22 -58 12 -25 23 -56 25 -70 3 -14 10 -37 15 -51 6 -15 9 -95 8
-185 -2 -87 0 -185 4 -216 3 -32 3 -59 -1 -60 -11 -4 -20 -59 -12 -71 4 -6 10
-2 14 9 7 18 7 18 15 -2 9 -20 9 -20 44 3 32 23 33 24 12 30 -12 3 -22 9 -22
14 0 12 21 7 38 -8 7 -7 20 -17 30 -22 13 -7 14 -12 3 -24 -10 -13 -9 -17 8
-26 11 -6 20 -19 20 -29 -1 -9 1 -43 3 -75 4 -50 2 -57 -14 -57 -10 0 -18 5
-18 10 0 6 -4 10 -10 10 -5 0 -10 -6 -10 -14 0 -8 -6 -17 -12 -19 -10 -4 -9
-6 1 -6 11 -1 10 -6 -5 -22 -14 -16 -15 -22 -5 -28 18 -11 -13 -41 -42 -40
-12 0 -16 3 -9 6 20 8 15 43 -7 43 -11 0 -22 -4 -26 -9 -3 -6 -18 -3 -35 7
-45 26 -61 4 -70 -102 -5 -47 -11 -90 -15 -96 -3 -5 -1 -10 6 -10 8 0 9 -4 0
-13 -8 -10 -7 -17 2 -27 10 -10 9 -12 -5 -7 -9 3 -19 3 -22 0 -8 -8 13 -45 23
-39 4 3 12 -4 18 -14 10 -15 8 -19 -9 -23 -15 -4 -19 -11 -15 -26 5 -22 -1
-25 -27 -15 -9 3 -13 10 -10 15 3 5 9 7 14 4 4 -3 10 4 13 15 3 11 1 20 -4 20
-5 0 -9 -4 -9 -9 0 -5 -13 -12 -30 -16 -25 -5 -29 -11 -27 -33 2 -15 8 -36 14
-47 8 -15 7 -23 -3 -33 -8 -7 -14 -10 -14 -7 0 4 -12 -5 -27 -19 -55 -51 -89
-73 -138 -91 -27 -11 -54 -25 -58 -32 -12 -19 -23 -16 -24 7 -1 11 4 20 13 20
8 0 14 7 14 15 0 8 6 15 14 15 20 0 40 26 26 35 -12 8 28 55 48 55 6 0 12 7
12 15 0 8 4 15 10 15 5 0 7 7 4 15 -4 8 -1 15 6 15 9 0 10 3 1 13 -8 10 -7 17
2 26 9 10 8 11 -8 5 -11 -4 -23 -12 -27 -18 -5 -7 -12 -4 -21 8 -9 12 -21 17
-34 14 -16 -4 -20 0 -20 23 0 15 4 26 9 23 4 -3 8 2 8 10 0 9 6 16 14 16 10 0
12 7 9 21 -6 20 -7 21 -19 5 -8 -12 -14 -14 -19 -6 -4 6 -4 14 -1 17 3 3 -2
11 -11 18 -14 11 -14 15 -2 31 8 10 20 19 27 20 37 3 42 5 42 18 0 7 -13 19
-28 25 -15 6 -36 23 -46 36 -11 15 -29 25 -44 25 -14 0 -48 7 -76 15 -28 8
-83 24 -123 35 -39 12 -104 23 -145 24 -90 5 -114 16 -155 71 -27 36 -30 45
-18 55 8 6 19 9 25 5 6 -4 9 -1 8 7 -3 13 4 15 67 17 21 1 26 4 16 10 -7 5
-21 7 -30 5 -9 -3 -21 -1 -26 3 -21 16 -65 82 -65 97 0 9 -4 16 -10 16 -18 0
-11 20 15 44 18 17 22 25 13 34 -9 9 -9 15 0 24 14 14 16 54 3 62 -5 4 0 25
11 48 11 23 21 57 22 77 1 20 5 41 9 48 4 6 4 18 1 26 -3 8 -1 18 5 22 16 9
13 67 -5 111 -16 37 -35 125 -35 154 0 8 3 31 7 51 5 31 2 38 -20 52 -14 10
-26 27 -26 38 0 12 -12 30 -26 42 -15 11 -33 35 -40 54 -8 18 -18 33 -22 33
-4 0 -13 19 -20 43 -12 39 -18 45 -72 66 -66 27 -81 48 -51 72 18 15 19 18 5
30 -8 7 -13 18 -10 25 3 7 -2 18 -10 24 -8 7 -14 22 -14 34 0 12 -10 28 -22
36 -11 8 -28 24 -37 34 -9 10 -26 28 -38 39 -13 11 -23 29 -23 39 0 10 -6 19
-12 19 -7 1 -25 2 -40 3 -15 1 -35 9 -45 18 -15 13 -46 27 -73 33 -3 1 -23 7
-45 14 -41 14 -121 28 -190 35 -22 2 -71 12 -109 21 -46 12 -75 15 -85 9 -9
-6 -54 -9 -101 -8 -47 1 -89 -1 -95 -6 -5 -4 -39 -10 -75 -14 -36 -3 -130 -14
-210 -25 -80 -10 -154 -19 -165 -18 -73 3 -155 -4 -150 -13 3 -5 -3 -10 -14
-10 -30 0 -73 19 -66 30 3 5 12 7 20 3 11 -4 13 -1 9 11 -5 13 2 16 38 16 25
0 48 3 52 7 8 8 24 11 81 18 22 2 62 9 88 15 27 5 72 10 100 11 29 1 57 4 62
8 14 8 31 11 90 17 28 3 69 12 93 21 l43 16 -7 45 c-6 42 -5 44 15 37 11 -3
21 -2 21 3 0 5 9 12 20 15 28 7 25 -8 -5 -21 -27 -12 -35 -38 -9 -28 8 3 25 1
37 -6 20 -10 21 -10 8 6 -17 21 -7 33 14 16 12 -10 15 -10 15 4 0 9 5 16 10
16 6 0 10 -6 10 -12 0 -10 2 -10 8 0 5 7 7 23 6 35 -1 12 -3 27 -3 34 -1 6
-13 16 -28 21 -16 6 -22 11 -15 11 6 1 12 5 12 11 0 5 -7 7 -15 4 -8 -4 -17 1
-21 10 -10 26 -24 8 -18 -23 5 -24 3 -29 -12 -28 -13 1 -19 -5 -19 -18 0 -11
-8 -21 -18 -23 -18 -4 -24 13 -7 23 5 3 10 12 10 18 0 7 -7 4 -14 -6 -16 -21
-42 -22 -63 -2 -14 14 -16 14 -27 0 -6 -9 -21 -17 -34 -18 -12 0 -22 -5 -22
-9 0 -4 -9 -8 -21 -8 -19 0 -78 -27 -89 -41 -3 -4 -20 -10 -38 -14 -18 -4 -36
-13 -39 -20 -2 -8 -11 -11 -18 -9 -7 3 -16 1 -19 -4 -3 -6 -15 -8 -26 -5 -11
3 -20 0 -20 -6 0 -6 -11 -11 -24 -11 -14 0 -28 -4 -31 -10 -8 -12 -45 -13 -45
-1 0 12 30 22 43 14 6 -4 8 0 5 9 -5 11 8 22 50 39 31 13 72 32 90 41 19 9 41
14 49 11 10 -4 14 -2 10 4 -7 11 169 103 196 103 9 0 22 9 30 20 8 11 28 23
45 26 35 7 51 36 32 59 -10 12 -16 11 -44 -4 -28 -16 -45 -18 -90 -12 -6 0 -1
7 9 15 18 13 18 14 -8 9 -15 -3 -27 -12 -27 -19 0 -11 -4 -12 -19 -2 -15 9
-25 9 -46 0 -22 -10 -29 -9 -47 8 -13 12 -25 16 -32 11 -6 -5 -23 -7 -39 -4
-22 4 -25 8 -16 19 9 11 7 14 -9 14 -11 0 -27 -6 -35 -14 -17 -17 -90 -14
-112 4 -8 7 -15 9 -15 5 0 -4 -6 -3 -12 3 -7 5 -40 15 -73 22 -33 7 -66 17
-74 23 -7 6 -23 11 -34 12 -13 0 -28 13 -40 33 l-19 32 22 0 c16 0 20 -4 16
-16 -4 -9 -2 -13 5 -8 8 4 9 -1 4 -16 -5 -15 -4 -20 4 -16 6 4 11 21 11 37 0
26 3 29 20 24 18 -6 19 -4 10 19 -5 14 -7 26 -5 26 12 0 54 -44 49 -52 -3 -4
0 -8 5 -8 6 0 11 4 11 8 0 5 9 18 21 30 11 12 17 27 14 32 -3 6 -1 10 4 10 6
0 11 -9 11 -20 0 -12 10 -31 23 -43 13 -12 26 -30 30 -39 5 -15 10 -16 32 -6
19 9 31 8 53 -3 15 -7 38 -14 52 -15 41 -2 110 -13 118 -18 16 -10 180 -16
203 -8 15 6 30 5 41 -2 12 -7 29 -7 60 1 24 6 45 8 48 4 3 -3 17 -6 33 -6 15
1 27 -2 27 -6 0 -4 14 -10 30 -14 17 -4 30 -11 30 -17 0 -26 94 -94 125 -90
12 2 35 -10 55 -28 27 -24 42 -30 71 -28 21 1 45 -4 53 -12 9 -7 19 -10 22 -7
4 3 13 -1 21 -9 8 -8 19 -12 24 -8 5 3 26 -8 47 -24 20 -16 43 -27 50 -25 7 3
24 -7 39 -21 14 -14 36 -26 48 -26 15 0 25 -8 28 -21 3 -12 10 -18 16 -14 6 3
11 1 11 -5 0 -6 4 -9 9 -5 5 3 12 -3 15 -13 4 -10 22 -25 41 -32 22 -9 35 -20
35 -32 0 -17 49 -45 134 -78 16 -6 26 -17 26 -30 0 -11 6 -20 13 -20 8 0 22
-9 32 -20 10 -11 24 -20 32 -20 7 0 13 -3 13 -7 0 -5 17 -19 38 -33 20 -14 39
-27 42 -30 3 -3 29 -21 58 -39 29 -18 60 -43 70 -55 19 -22 42 -39 82 -58 14
-7 36 -24 49 -37 23 -24 24 -24 37 -6 16 22 18 45 4 45 -14 0 -12 27 3 33 7 4
6 6 -4 6 -9 1 -19 10 -22 22 -4 14 -10 18 -18 13 -9 -5 -10 -2 -6 10 6 14 3
17 -9 12 -12 -4 -32 10 -67 46 -28 29 -55 52 -59 50 -5 -1 -18 7 -30 18 -12
11 -25 20 -30 20 -4 0 -8 7 -8 15 0 9 -11 20 -24 24 -13 5 -26 17 -29 25 -4 9
-16 16 -27 16 -11 0 -20 5 -20 10 0 6 -11 21 -25 34 -14 13 -25 28 -25 33 0
11 -45 46 -75 57 -13 5 -15 10 -7 13 24 9 12 21 -28 28 -22 4 -43 12 -47 18
-4 7 0 8 13 3 15 -6 16 -5 7 5 -10 10 -9 17 4 33 10 12 11 15 3 9 -19 -18 -40
-16 -40 2 0 8 -4 16 -10 16 -5 1 -15 2 -22 3 -14 1 -22 46 -8 46 6 0 10 -4 10
-10 0 -5 5 -10 10 -10 6 0 10 7 10 15 0 8 5 15 10 15 6 0 22 11 36 25 14 14
29 23 35 20 5 -4 5 4 -1 19 -11 29 -8 31 21 15 11 -5 17 -14 14 -18 -3 -5 2
-11 10 -15 8 -3 15 -12 15 -21 0 -8 9 -15 20 -15 13 0 25 -12 34 -34 15 -35
49 -62 66 -51 5 3 14 -4 20 -15 6 -12 7 -20 1 -20 -5 0 -11 6 -14 13 -2 6 -8
9 -12 5 -13 -12 4 -38 25 -38 11 0 20 5 20 10 0 18 22 10 27 -10 3 -11 9 -20
14 -20 5 0 9 -8 10 -17 0 -16 1 -16 8 1 7 18 8 18 14 3 8 -21 27 -22 27 -2 0
22 38 18 45 -5 7 -24 23 -26 31 -5 9 22 27 18 54 -11 19 -20 22 -27 11 -33
-37 -23 29 -42 70 -21 15 9 19 7 19 -6 0 -9 -8 -23 -17 -30 -16 -12 -15 -13
10 -10 15 2 33 8 39 14 18 18 25 14 31 -17 4 -17 16 -35 29 -42 36 -18 68 -51
68 -69 0 -26 35 -54 55 -43 20 11 107 -9 113 -25 2 -7 13 -12 23 -12 45 0 87
-35 109 -90 15 -40 39 -72 50 -65 4 2 22 -9 40 -25 21 -18 45 -30 62 -30 17 0
28 -5 28 -14 0 -17 24 -28 45 -20 10 4 18 -3 24 -20 6 -14 19 -31 29 -37 11
-7 17 -20 15 -29 -8 -29 17 -34 43 -9 22 21 27 22 46 10 19 -12 23 -11 35 5
10 14 16 15 25 6 7 -7 21 -12 32 -12 16 0 17 3 8 12 -16 16 -15 45 1 51 6 3
-6 4 -28 1 -34 -3 -41 -1 -41 15 0 12 6 17 18 13 10 -2 18 1 18 7 0 5 12 17
28 25 25 14 26 15 5 16 -13 0 -23 5 -23 12 0 6 -9 3 -20 -7 -31 -28 -90 -47
-96 -30 -3 7 -13 11 -23 8 -19 -5 -77 48 -87 79 -3 10 -10 18 -15 18 -5 0 -9
13 -9 28 0 21 -7 31 -27 39 -27 11 -27 11 -3 7 23 -5 26 -2 25 25 0 31 -8 40
-20 21 -3 -5 -12 -10 -18 -9 -9 0 -9 2 1 6 20 8 14 23 -9 23 -19 0 -21 -4 -16
-40 6 -47 -10 -54 -26 -11 -6 16 -19 32 -29 34 -19 5 -26 37 -8 37 6 0 9 -4 8
-9 -2 -5 2 -9 7 -9 6 0 8 5 6 12 -2 6 -4 23 -4 38 l0 27 -28 -20 c-38 -27 -57
-24 -62 9 -4 26 -4 26 -12 4 -5 -15 -11 -19 -19 -13 -6 5 -22 11 -36 13 -14 2
-24 9 -22 16 1 6 -2 12 -8 12 -5 0 -10 -5 -10 -12 0 -6 -9 -3 -20 7 -15 14
-20 15 -20 4 -1 -10 -4 -9 -14 4 -7 9 -21 17 -30 17 -12 0 -16 6 -12 18 7 22
-7 44 -25 40 -8 -1 -36 21 -63 50 -33 35 -57 52 -73 52 -26 0 -83 29 -83 42 0
4 -12 9 -27 9 -22 1 -23 3 -7 6 29 5 30 49 1 57 -12 3 -18 10 -14 20 4 10 1
13 -7 10 -17 -7 -8 -44 10 -44 8 0 14 -4 14 -10 0 -17 -28 -11 -49 12 -11 11
-18 26 -14 31 3 6 1 7 -5 3 -7 -4 -22 5 -36 21 -13 15 -28 25 -32 20 -4 -4 1
-14 12 -22 24 -18 7 -19 -29 -2 -18 8 -30 25 -39 55 -10 33 -19 44 -38 49 -23
5 -80 57 -80 72 1 29 64 58 87 40 24 -20 38 5 17 29 -10 12 -21 19 -25 16 -5
-2 -13 4 -18 15 -7 12 -18 17 -30 14 -10 -3 -30 2 -44 11 -13 9 -37 19 -53 21
-61 9 -89 22 -86 38 2 14 -6 17 -43 17 -25 0 -45 5 -45 10 0 6 7 10 15 10 8 0
15 5 15 11 0 5 5 7 10 4 6 -4 8 -11 5 -16 -4 -5 -1 -9 4 -9 6 0 11 5 11 10 0
6 7 10 15 10 8 0 15 7 15 16 0 8 -4 13 -9 10 -5 -4 -11 0 -14 6 -3 10 -7 10
-18 1 -9 -7 -20 -8 -29 -3 -8 5 -18 6 -23 3 -5 -3 -3 -9 4 -14 11 -7 10 -9 -3
-9 -10 0 -18 4 -18 8 0 5 -30 8 -67 8 -54 -1 -68 2 -69 14 -1 8 -2 19 -3 25 0
5 -6 4 -13 -3 -15 -15 -42 -16 -33 -2 4 7 -3 9 -22 5 -19 -5 -24 -4 -14 3 11
8 9 11 -8 17 -15 4 -20 12 -17 22 9 23 -4 36 -22 21 -13 -11 -14 -11 -8 0 6
10 3 13 -10 11 -11 -2 -25 0 -31 4 -7 4 -21 3 -32 -3 -12 -6 -22 -6 -25 -1 -4
5 0 12 6 14 8 4 7 6 -4 6 -9 1 -24 -6 -32 -15 -15 -14 -16 -13 -16 16 0 24 -4
31 -14 27 -17 -7 -27 14 -21 43 2 13 0 18 -7 14 -5 -4 -14 -1 -18 6 -4 6 -16
10 -26 7 -17 -4 -17 -6 4 -12 23 -8 28 -20 12 -30 -5 -3 -10 -1 -10 4 0 6 -7
11 -15 11 -23 0 -35 31 -19 48 17 17 10 32 -16 32 -22 0 -35 -16 -21 -25 6 -3
8 -12 4 -20 -3 -8 1 -15 8 -15 7 0 9 -3 6 -6 -4 -4 -14 -1 -23 7 -10 8 -19 13
-21 12 -1 -2 -6 -3 -10 -3 -5 0 -1 4 7 10 12 7 12 10 -4 16 -13 5 -24 0 -37
-17 -17 -23 -27 -50 -12 -36 3 4 14 0 23 -8 10 -9 24 -15 31 -13 8 2 13 -3 11
-9 -1 -7 4 -13 11 -13 25 0 60 -38 54 -59 -3 -11 -2 -20 2 -19 25 3 41 -5 41
-19 0 -16 2 -16 11 -3 9 12 10 12 5 -3 -3 -10 -6 -23 -6 -28 0 -5 -5 -9 -11
-9 -5 0 -7 5 -4 10 3 6 -2 10 -12 11 -10 0 -13 3 -6 6 26 10 12 21 -16 13 -21
-6 -31 -5 -34 3 -2 7 -2 2 -1 -10 5 -26 -14 -41 -22 -19 -3 9 -15 16 -26 16
-26 0 -15 -14 27 -34 19 -9 35 -21 35 -26 0 -12 -30 -1 -55 20 -21 17 -65 25
-65 10 0 -4 -7 -11 -16 -14 -10 -4 -13 -2 -8 6 5 7 0 9 -14 6 -20 -6 -40 18
-26 31 4 3 9 1 11 -6 5 -14 33 -5 50 16 18 24 16 29 -12 23 -14 -2 -22 -8 -19
-13 9 -14 -6 -10 -22 6 -9 8 -27 15 -40 15 -14 0 -23 4 -19 9 7 13 -32 24 -76
23 -29 -1 -38 3 -42 18 -3 13 -11 18 -20 14 -8 -3 -18 -1 -22 5 -3 6 1 11 9
11 10 0 13 6 9 16 -4 12 0 14 23 9 22 -4 19 -1 -11 11 -22 10 -43 22 -46 27
-4 5 -12 6 -19 2 -9 -5 -11 -4 -6 3 9 14 5 15 -26 3 -16 -6 -32 -5 -48 5 -14
7 -20 13 -14 14 14 0 15 29 2 56 -9 19 -15 21 -42 13 -38 -11 -39 -11 -31 1 3
6 -3 10 -14 10 -15 0 -21 6 -21 23 0 13 -5 28 -12 35 -9 9 -9 12 0 12 7 0 12
5 12 11 0 7 -9 5 -24 -4 -14 -10 -32 -13 -47 -9 -22 6 -21 7 11 12 19 3 35 10
35 15 0 6 4 16 8 23 5 8 3 12 -7 12 -18 0 -49 28 -59 53 -3 9 -11 17 -17 17
-6 0 -8 -6 -4 -12 6 -9 3 -9 -9 0 -9 8 -22 10 -28 6 -8 -4 -9 -3 -5 5 4 6 5
19 2 29 -6 17 -16 19 -106 24 -33 2 -36 4 -32 30 3 16 0 28 -7 28 -6 0 -11 -7
-11 -16 0 -9 -5 -12 -12 -8 -7 4 -27 7 -44 6 -18 -2 -35 2 -38 7 -3 5 -15 7
-26 4 -16 -4 -20 0 -20 20 0 29 24 47 64 47 13 0 26 4 28 9 2 6 38 12 80 14
49 3 86 10 102 21 15 9 26 14 26 11 0 -4 12 0 28 8 75 39 150 70 172 72 9 1
32 8 53 14 20 7 49 12 64 11 16 -1 30 -1 33 0 20 7 60 7 85 -1 17 -5 57 -11
90 -14 75 -6 154 -23 180 -40 11 -6 32 -15 48 -19 15 -3 27 -11 27 -16 0 -5 6
-7 13 -4 7 2 28 -7 47 -21 19 -14 40 -25 47 -25 7 0 22 -9 34 -21 11 -11 39
-32 62 -47 23 -15 67 -51 97 -79 l55 -52 17 22 c10 12 18 27 18 33 0 13 -33
44 -47 44 -5 0 -18 9 -28 20 -10 11 -24 20 -31 20 -27 0 -61 23 -78 51 -11 18
-25 29 -39 29 -12 0 -38 14 -57 30 -19 16 -40 30 -46 30 -6 0 -40 15 -75 33
-35 19 -86 42 -114 52 -70 25 -134 55 -141 66 -3 5 -20 9 -37 9 -18 -1 -54 4
-81 9 -26 6 -52 8 -57 5 -5 -3 -9 0 -9 5 0 6 -11 11 -24 11 -14 0 -28 5 -31
10 -4 6 -15 8 -26 5 -26 -9 -24 10 3 29 17 12 24 13 30 3 5 -8 8 -5 8 9 0 20
-4 21 -50 17 -32 -3 -50 -1 -50 6 0 6 11 11 24 11 29 0 46 20 19 21 -10 0 -28
2 -40 3 -13 2 -23 -3 -23 -10 0 -21 -57 -28 -76 -10 -17 18 -44 21 -44 6 0 -5
-6 -7 -12 -5 -53 17 -166 27 -174 14 -7 -12 -44 -11 -44 1 0 6 -5 10 -11 10
-6 0 -8 -7 -5 -15 3 -8 9 -22 13 -32 3 -9 2 -14 -3 -11 -15 9 -54 -10 -54 -27
0 -8 -8 -14 -17 -13 -32 2 -53 -2 -53 -11 0 -13 47 -20 59 -8 5 5 17 7 27 3
27 -10 2 -28 -40 -29 -25 -1 -42 6 -56 21 -12 12 -25 22 -30 22 -17 0 -25 -5
-22 -13 1 -5 -2 -6 -8 -2 -13 8 -52 -13 -45 -25 11 -17 -16 -21 -40 -6 -23 15
-25 15 -25 0 0 -12 -4 -14 -12 -7 -15 12 -98 5 -98 -8 0 -17 -19 -9 -25 11 -3
11 -13 20 -21 20 -8 0 -14 3 -14 8 1 22 23 30 95 34 68 4 93 11 165 45 125 61
261 103 380 118 107 14 245 41 261 51 5 3 28 5 52 6 41 0 104 23 140 52 23 18
36 119 17 131 -41 25 -153 -3 -192 -48 -10 -11 -18 -15 -18 -9 0 7 -7 12 -15
12 -8 0 -15 8 -16 18 0 15 -2 14 -10 -3 -6 -14 -7 -3 -3 35 3 30 7 69 9 85 1
17 8 29 15 27 6 -1 17 11 23 28 6 16 16 30 22 30 18 1 86 76 88 98 1 12 5 22
9 22 4 0 8 8 8 18 0 9 6 29 14 44 8 15 12 35 10 45 -9 36 10 46 95 48 45 1 81
-1 81 -4 0 -3 21 -7 47 -9 28 -1 51 -8 55 -16 9 -17 87 -10 103 8 6 7 25 21
43 31 17 11 32 23 32 27 0 3 41 4 90 1 78 -5 90 -4 90 10 0 23 119 142 160
159 19 9 55 21 80 27 80 22 145 44 158 54 8 6 21 12 30 14 87 14 138 30 135
41 -3 8 7 12 31 12 25 0 36 5 36 15 0 9 -6 12 -15 9 -10 -4 -15 0 -15 15 0 12
5 21 10 21 6 0 10 12 9 28 0 15 -3 21 -6 15 -5 -14 -35 -18 -46 -7 -3 4 4 24
16 46 16 30 19 42 10 45 -7 3 -13 18 -13 33 0 16 -5 52 -11 80 -11 50 -11 50
-50 50 -32 0 -39 4 -39 19 0 11 -4 23 -10 26 -5 3 -10 36 -10 73 0 67 0 68
-27 67 -24 0 -28 4 -28 28 1 15 -4 27 -11 27 -14 0 -34 74 -34 124 0 20 5 36
10 36 6 0 10 11 10 25 0 23 -4 25 -40 25 l-40 0 0 -45 c0 -32 -5 -47 -16 -52
-25 -9 -32 8 -27 70 5 55 6 57 34 57 24 0 29 4 29 25 0 22 -3 24 -31 18 -31
-6 -32 -5 -26 22 3 17 -1 38 -10 52 -8 12 -13 29 -10 37 8 20 -22 59 -37 47
-15 -13 -20 193 -5 222 8 15 7 23 -4 34 -21 21 -57 1 -57 -32 0 -14 -4 -25
-10 -25 -5 0 -10 13 -10 29 0 17 -4 32 -8 35 -5 3 -5 29 -2 58 4 29 5 60 2 70
-2 10 2 20 12 24 19 7 21 45 4 62 -16 16 -11 174 5 184 6 4 8 11 3 15 -5 4
-11 2 -13 -4 -6 -18 -60 -16 -66 1 -4 10 -1 13 9 9 10 -4 14 3 14 29 0 49 18
96 42 109 12 6 17 14 12 18 -29 20 -46 65 -42 117 3 47 1 53 -14 48 -14 -4
-18 0 -18 20 0 13 -3 33 -7 43 -7 17 -6 17 11 1 21 -22 40 -23 56 -3 9 10 9
15 1 15 -6 0 -11 5 -11 10 0 6 6 10 14 10 12 0 14 20 11 113 -2 61 -1 97 1 80
3 -18 9 -33 15 -33 12 0 12 137 -1 145 -6 3 -10 -1 -10 -9 0 -10 -6 -13 -15
-10 -21 9 -21 114 0 114 8 0 15 5 15 10 0 6 9 10 21 10 19 0 20 4 14 42 -4 23
-10 88 -14 145 -6 99 -5 103 19 133 20 25 24 39 22 75 -4 42 -6 45 -32 45 -16
0 -31 -6 -33 -12 -4 -10 -6 -10 -6 0 -1 9 -479 12 -2356 12 l-2355 0 0 -4270z
m3028 386 c2 -22 -4 -56 -13 -76 -15 -33 -23 -39 -78 -53 -34 -9 -72 -19 -85
-23 -18 -5 -24 -2 -29 14 -3 15 -12 20 -31 19 -30 -2 -39 19 -19 46 11 16 17
17 40 6 15 -7 27 -20 27 -31 0 -22 7 -23 26 -4 16 16 19 36 5 36 -5 0 -12 12
-15 26 -12 45 49 85 124 81 45 -2 45 -2 48 -41z m-465 -523 c-7 -2 -13 -9 -13
-14 0 -4 7 -6 15 -3 8 4 15 1 15 -5 0 -6 -12 -16 -26 -21 -14 -6 -22 -15 -19
-21 4 -6 -2 -13 -14 -16 -17 -4 -21 -13 -21 -49 0 -39 3 -44 35 -60 39 -18 49
-54 15 -54 -10 0 -23 -8 -29 -17 -7 -14 -12 -15 -24 -4 -9 7 -13 19 -10 27 3
10 0 12 -10 8 -8 -3 -18 -1 -22 5 -3 6 -16 11 -29 11 -12 0 -30 6 -40 13 -15
11 -16 17 -6 39 7 14 23 32 36 39 14 7 27 23 30 35 4 14 11 21 20 17 8 -3 14
1 14 11 0 9 7 16 15 16 8 0 15 6 15 13 0 12 35 34 55 35 6 0 4 -2 -2 -5z m849
-1764 c29 -6 57 -15 63 -20 5 -5 24 -9 42 -9 17 0 44 -5 58 -12 44 -20 30 -79
-20 -83 -22 -2 -36 -17 -27 -28 5 -7 12 -60 15 -118 l5 -105 -29 4 c-16 2 -32
8 -34 13 -3 4 -18 4 -32 -2 -31 -12 -53 -5 -53 16 0 8 -4 15 -8 15 -9 0 -32
44 -32 61 0 6 4 8 9 5 13 -8 71 5 71 15 0 5 -8 9 -17 9 -24 0 -96 77 -87 93 5
9 4 9 -7 0 -16 -15 -33 -17 -24 -3 3 5 0 7 -8 4 -8 -3 -18 -1 -22 5 -3 6 -1
11 5 11 7 0 10 13 8 33 -2 17 -8 31 -15 30 -6 -1 -14 5 -17 14 -5 12 -2 14 13
10 17 -4 19 -1 14 24 -5 28 -4 29 35 29 23 0 65 -5 94 -11z m-438 -40 c34 -16
63 -105 41 -127 -3 -3 -30 -9 -47 -11 -5 -1 -8 -10 -8 -22 0 -15 -5 -20 -22
-17 -24 3 -27 -10 -13 -45 5 -12 -3 -26 -29 -50 -36 -34 -46 -62 -24 -69 7 -3
-3 -12 -21 -21 -36 -18 -81 -13 -81 9 0 25 -24 65 -36 60 -8 -3 -15 7 -19 25
-5 23 -11 28 -25 24 -21 -7 -25 -2 -35 43 -4 20 -3 32 4 32 6 0 11 -12 11 -27
l0 -27 15 22 c13 17 13 26 5 43 -16 29 -5 56 15 39 12 -10 15 -10 15 2 0 28
25 68 43 68 10 0 28 5 40 12 12 6 37 12 56 13 20 1 39 8 45 18 13 20 35 22 70
6z m4120 -781 c-4 -13 -7 -33 -6 -45 1 -14 -7 -27 -19 -34 -14 -7 -19 -17 -16
-29 3 -11 -1 -24 -8 -30 -7 -6 -19 -34 -25 -61 -7 -28 -18 -53 -25 -56 -8 -2
-14 -23 -15 -49 0 -24 -1 -50 -2 -56 0 -7 1 -19 3 -27 2 -7 -1 -15 -8 -18 -8
-3 -11 7 -11 27 1 18 -5 35 -12 40 -8 5 -10 22 -6 56 3 27 7 63 9 79 2 17 16
43 30 57 19 19 27 37 27 63 0 19 5 35 10 35 6 0 9 3 8 8 -1 4 4 19 10 35 8 20
19 27 37 27 23 0 25 -3 19 -22z"/>
<path d="M5908 8414 c-5 -4 -8 -17 -8 -28 0 -16 -2 -18 -9 -7 -6 10 -9 -14 -9
-67 0 -92 -7 -122 -28 -122 -8 0 -14 -10 -14 -25 0 -14 3 -24 8 -24 25 4 33
-1 20 -15 -9 -10 -15 -11 -20 -2 -4 6 -8 -1 -8 -16 0 -16 5 -28 10 -28 6 0 10
-20 10 -43 0 -24 6 -64 13 -88 14 -47 6 -89 -18 -89 -12 0 -27 -184 -29 -357
-1 -46 -5 -83 -9 -83 -4 0 -7 -44 -6 -98 1 -54 -1 -103 -4 -109 -4 -5 -9 -68
-12 -139 -3 -70 -10 -131 -14 -134 -5 -3 -12 -27 -16 -55 -3 -27 -8 -61 -11
-73 -3 -15 -1 -21 6 -17 13 8 13 2 -1 -29 -10 -21 -9 -30 6 -52 16 -26 16 -27
0 -20 -13 5 -16 2 -11 -10 3 -8 6 -20 6 -25 0 -6 5 -7 10 -4 6 3 10 1 10 -4 0
-6 -5 -11 -11 -11 -7 0 -9 -13 -5 -37 4 -21 2 -45 -4 -53 -7 -11 -10 -11 -10
-2 0 7 -5 10 -11 7 -6 -5 -10 -40 -8 -94 1 -47 -1 -157 -4 -244 -6 -146 -5
-159 13 -177 10 -10 20 -29 23 -42 4 -23 4 -23 6 0 1 28 18 29 26 1 5 -14 13
-19 24 -16 10 2 23 -3 29 -13 29 -46 210 -64 392 -39 41 6 89 12 105 13 17 2
32 4 35 6 3 1 22 3 43 4 22 2 42 9 47 16 6 10 8 10 12 -1 4 -11 10 -11 36 0
17 7 43 10 56 7 14 -3 37 -1 53 5 15 7 48 13 73 14 113 6 255 29 268 44 7 9
25 17 40 18 111 8 126 12 133 30 4 10 8 12 8 4 1 -9 9 -12 26 -9 13 3 26 1 27
-3 2 -5 19 -5 37 1 25 7 37 6 42 -1 5 -8 9 -8 14 1 4 7 2 16 -6 21 -11 6 -10
9 4 15 9 3 23 4 31 1 7 -3 19 0 25 6 6 6 11 8 11 4 0 -4 9 -3 20 3 13 7 20 21
20 38 0 35 -14 57 -30 47 -8 -5 -11 -4 -7 3 17 27 -46 81 -79 68 -10 -4 -19 4
-26 26 l-11 31 -18 -21 c-27 -34 -46 -27 -53 18 -5 31 -11 40 -26 40 -15 0
-20 7 -20 27 0 21 -3 24 -12 15 -19 -19 -37 -14 -50 13 -6 14 -17 25 -25 25
-7 0 -13 7 -13 15 0 9 -13 24 -30 33 -16 9 -30 24 -31 32 0 10 -3 8 -8 -5 l-8
-20 -7 20 c-7 24 -51 46 -73 38 -13 -5 -15 -1 -11 21 5 25 3 27 -26 26 -17 -1
-40 -1 -51 -1 -19 2 -19 2 -2 15 23 17 22 23 -5 22 -16 -1 -24 7 -30 32 -8 31
-28 45 -28 20 -1 -7 -8 0 -16 15 -8 15 -20 25 -26 21 -6 -4 -8 1 -3 15 3 12 2
21 -4 21 -5 0 -12 9 -16 19 -4 13 -12 18 -21 14 -12 -4 -15 0 -13 18 2 13 -2
34 -9 46 -14 26 -16 63 -3 63 14 0 23 37 16 60 -9 27 -22 25 -29 -5 -9 -36
-29 -20 -22 17 4 23 0 35 -19 54 -14 14 -25 31 -25 38 0 8 -7 19 -15 26 -12
10 -15 10 -15 -3 0 -8 -7 -20 -14 -27 -12 -9 -19 -3 -40 39 -14 27 -23 57 -20
65 4 9 -1 18 -10 22 -9 3 -16 12 -16 20 0 8 -4 14 -10 14 -5 0 -10 -10 -10
-22 l0 -23 -19 24 c-13 17 -24 22 -37 18 -15 -6 -13 -2 5 13 21 18 22 24 13
45 -7 14 -17 24 -23 23 -6 -2 -16 12 -22 31 -15 42 -43 63 -57 41 -6 -9 -10
-10 -10 -3 0 7 8 16 18 22 14 8 15 12 5 22 -10 10 -13 10 -13 1 0 -7 -7 -12
-15 -12 -19 0 -19 20 0 47 14 20 14 25 -2 51 -10 16 -22 27 -28 25 -13 -4 -35
43 -36 76 0 26 0 26 -9 4 -5 -13 -14 -23 -19 -23 -14 0 -23 33 -11 40 6 4 8
14 5 23 -4 9 1 22 13 32 21 18 19 65 -3 65 -16 0 -26 25 -19 45 10 25 -7 40
-23 20 -11 -16 -13 -16 -13 -3 0 9 -8 19 -17 22 -12 5 -13 10 -5 18 8 8 7 15
-3 25 -22 22 -37 85 -22 95 9 6 8 11 -4 21 -9 7 -19 23 -23 37 -4 14 -13 36
-19 49 -9 19 -9 25 1 28 6 3 12 18 12 34 0 27 -2 29 -40 29 -33 0 -40 4 -40
19 0 10 7 21 15 25 19 7 19 30 -1 50 -8 9 -11 16 -5 16 13 0 14 32 2 46 -5 5
-11 22 -13 37 -2 16 -6 25 -10 21z"/>
<path d="M8130 5935 c-30 -32 -33 -48 -34 -162 -1 -79 2 -95 19 -112 35 -35
45 -50 45 -66 0 -8 4 -15 8 -15 5 0 15 -18 22 -40 7 -22 21 -42 32 -45 10 -4
18 -15 18 -26 0 -11 10 -23 24 -28 13 -5 26 -15 29 -23 2 -7 21 -21 41 -30 90
-44 106 -53 106 -59 0 -10 49 -29 75 -29 13 0 27 -5 30 -10 4 -6 15 -8 25 -5
12 4 22 -1 29 -12 10 -17 12 -17 26 1 12 17 18 18 40 8 35 -16 37 -15 33 11
-3 25 -46 37 -58 17 -5 -9 -10 -6 -15 9 -7 22 -20 27 -30 11 -4 -6 -15 -2 -27
10 -12 11 -27 20 -34 20 -10 0 -24 32 -28 65 -1 6 -7 28 -13 50 -7 22 -14 58
-18 80 -5 34 -21 60 -60 100 -14 15 -35 53 -35 65 0 21 -62 100 -78 100 -5 0
-27 21 -48 48 -44 55 -82 92 -93 92 -4 0 -18 -11 -31 -25z"/>
<path d="M10063 5912 c-21 -15 -21 -20 -10 -42 15 -28 18 -47 18 -98 0 -32 1
-33 32 -27 73 16 181 95 213 158 l15 27 -123 0 c-101 0 -127 -4 -145 -18z"/>
<path d="M11244 5737 c-57 -33 -91 -64 -248 -222 -102 -102 -176 -186 -187
-210 -10 -22 -36 -67 -59 -100 -22 -33 -40 -65 -40 -71 0 -6 11 -17 25 -24 19
-10 22 -17 14 -31 -5 -11 -19 -19 -31 -19 -12 0 -19 -3 -16 -6 4 -3 -3 -37
-13 -76 -25 -88 -20 -94 76 -102 260 -21 285 -30 480 -171 44 -32 99 -72 122
-88 54 -39 98 -100 127 -179 26 -69 86 -352 86 -405 0 -30 3 -33 28 -33 17 0
64 21 113 51 46 29 98 59 114 69 17 9 70 41 118 71 48 30 104 64 125 76 20 12
44 27 52 33 8 6 49 32 91 58 42 26 89 57 105 69 16 12 63 47 104 78 41 30 100
78 131 106 30 27 70 59 87 69 18 11 32 24 32 30 0 5 6 10 12 10 7 0 34 24 60
53 l48 52 0 425 0 425 -327 -3 c-181 -2 -368 -4 -418 -5 -116 -2 -225 3 -295
14 -91 13 -150 19 -255 25 -55 4 -111 12 -125 19 -40 20 -112 27 -136 12z"/>
<path d="M9620 5493 c0 -5 -21 -17 -46 -27 -53 -22 -142 -79 -160 -104 -22
-29 -16 -49 34 -100 79 -82 96 -107 116 -167 l20 -57 71 7 c39 3 128 10 198
14 76 4 132 12 139 19 9 9 6 12 -12 12 -39 0 -112 32 -148 64 -46 42 -43 72
15 129 40 41 44 47 28 54 -10 3 -20 2 -22 -3 -6 -19 -173 9 -173 28 0 6 -7 16
-16 22 -10 8 -15 29 -16 64 -1 36 -5 52 -15 52 -7 0 -13 -3 -13 -7z"/>
<path d="M12230 4182 c-30 -15 -69 -37 -87 -49 -17 -13 -36 -23 -41 -23 -6 0
-20 -12 -31 -26 -11 -14 -24 -23 -29 -20 -13 8 -72 -23 -79 -40 -3 -8 -16 -14
-29 -14 -13 0 -24 -4 -24 -9 0 -5 -15 -13 -32 -16 -18 -4 -47 -18 -65 -31 -17
-13 -35 -24 -40 -24 -4 0 -19 -9 -33 -20 -14 -11 -32 -20 -40 -20 -24 -1 -158
-73 -188 -102 -16 -14 -34 -45 -42 -67 -13 -41 -23 -50 -35 -31 -11 17 -28 11
-22 -9 3 -14 0 -17 -14 -14 -11 3 -19 1 -19 -5 0 -16 -61 -34 -127 -36 l-62
-3 -26 49 c-14 26 -28 48 -30 48 -2 0 -2 -22 1 -49 2 -27 1 -59 -4 -71 -8 -22
-9 -21 -25 11 -13 26 -17 29 -17 14 l-1 -20 -9 20 c-10 26 -161 197 -167 191
-3 -3 -22 6 -42 19 -19 14 -41 25 -47 25 -7 0 -14 5 -16 11 -5 14 -51 17 -90
7 -17 -4 -28 -3 -28 3 0 6 -5 7 -11 3 -8 -4 -8 -9 0 -17 24 -24 9 -29 -16 -6
l-27 24 25 -35 c46 -64 62 -93 48 -85 -8 5 -6 -1 4 -12 10 -12 15 -23 10 -25
-4 -3 -2 -3 5 -1 8 1 21 -5 30 -14 16 -16 16 -16 -5 -11 -13 3 -26 2 -29 -3
-3 -5 0 -9 7 -9 7 0 9 -3 6 -7 -4 -3 -2 -12 4 -19 13 -16 -5 -27 -32 -19 -13
4 -18 12 -15 21 3 8 2 12 -4 9 -5 -3 -17 7 -26 22 -10 15 -29 41 -43 56 l-26
29 27 -7 27 -7 -16 33 c-9 19 -23 42 -31 52 -14 16 -14 17 1 11 9 -3 17 -10
17 -15 0 -5 5 -9 12 -9 7 0 -3 16 -22 35 -19 20 -40 33 -47 31 -7 -3 -12 0
-10 7 1 7 -6 11 -17 9 -17 -3 -18 -2 -7 12 12 14 11 16 -3 10 -9 -3 -16 -1
-16 6 0 6 -4 8 -10 5 -5 -3 -10 2 -10 12 -1 17 -1 17 -11 1 -5 -9 -7 -29 -5
-44 3 -15 1 -35 -4 -44 -6 -11 -5 -21 3 -30 10 -10 8 -12 -5 -7 -24 9 -23 5
13 -34 19 -22 27 -26 20 -12 -6 12 -11 25 -11 28 0 12 25 -20 43 -55 36 -71
45 -82 50 -68 2 7 4 1 3 -14 -1 -37 -9 -35 -32 7 -21 39 -41 41 -36 4 4 -24 3
-24 -12 -4 -8 11 -16 26 -16 33 0 6 -5 12 -10 12 -6 0 -8 -11 -4 -25 6 -25
-10 -36 -19 -12 -2 6 -8 9 -12 5 -5 -5 0 -17 10 -28 10 -11 15 -23 11 -27 -4
-4 -24 13 -46 37 -26 29 -38 37 -35 24 2 -10 4 -22 4 -26 1 -4 8 -14 17 -23 9
-9 13 -19 9 -23 -3 -4 -19 9 -35 28 -18 22 -24 37 -18 41 18 12 0 42 -20 34
-9 -4 -23 -8 -30 -8 -8 0 -7 -6 5 -19 9 -10 13 -21 10 -25 -4 -3 -7 -2 -7 4 0
6 -6 13 -14 16 -12 5 -11 -3 4 -39 19 -43 16 -56 -8 -32 -9 9 -12 9 -12 -3 0
-11 27 -19 103 -33 56 -10 128 -24 159 -32 63 -15 494 -225 603 -295 64 -40
75 -44 135 -44 65 0 66 1 184 79 65 43 148 104 184 136 37 31 78 64 91 73 46
31 294 282 350 354 84 108 136 184 151 223 8 19 22 44 32 54 18 20 25 56 11
56 -5 -1 -33 -13 -63 -28z"/>
<path d="M5551 3520 c24 -22 49 -40 56 -40 6 0 22 -13 36 -29 29 -35 69 -56
122 -64 22 -4 44 -12 50 -19 5 -7 15 -13 20 -14 22 -1 85 -35 85 -45 0 -6 10
-9 23 -7 17 3 30 -5 52 -32 29 -36 75 -66 75 -50 0 5 -4 12 -10 15 -5 3 -10
15 -10 26 0 10 -7 19 -15 19 -8 0 -15 7 -15 16 0 10 -6 14 -14 11 -10 -4 -13
1 -12 17 5 38 -11 66 -38 66 -13 0 -37 7 -52 15 -16 8 -38 15 -49 15 -11 0
-31 9 -45 20 -14 11 -40 20 -58 20 -18 0 -44 7 -57 16 -15 10 -32 13 -47 9
-13 -4 -20 -4 -16 0 8 9 -6 21 -65 54 -58 32 -64 25 -16 -19z"/>
<path d="M6069 3243 c6 -12 8 -28 6 -36 -6 -14 21 -44 31 -34 3 3 30 -19 60
-50 47 -49 57 -55 81 -48 43 10 133 55 133 66 0 6 5 7 12 3 7 -4 8 -3 4 5 -5
7 -19 10 -36 6 -19 -4 -29 -2 -33 9 -4 11 -16 13 -46 9 -25 -3 -41 -2 -41 4 0
13 -55 36 -71 31 -7 -2 -21 4 -31 14 -10 10 -23 16 -29 12 -6 -3 -20 2 -31 13
-21 18 -21 18 -9 -4z"/>
</g>
</svg>
